<svg width="100" height="100" viewBox="0 0 100 100" fill="none" xmlns="http://www.w3.org/2000/svg">
<path d="M66.9893 47.5359C61.9203 51.0444 28.7263 74.0284 21.0411 79.3536L8.04578 68.1157L44.9932 28.5144L66.9893 47.5359ZM92.57 6.42208C82.6683 -2.14069 66.6085 -2.14069 56.7068 6.42208C50.1778 12.0723 49.6238 18.2641 49.3058 20.4601L76.337 43.8358C78.6691 43.6108 85.9834 43.1315 92.57 37.4356C102.477 28.8728 102.477 14.9848 92.57 6.42208ZM45.1859 81.1744C34.1422 81.1744 29.0974 87.1205 21.9805 90.9873C16.9405 93.7207 12.1703 92.3331 9.87677 89.8789C9.04319 88.9997 6.6629 85.8329 10.7152 82.2037L10.1129 81.6828L4.68736 77.1369C-1.92348 83.0371 -0.752611 90.0873 3.34303 94.4582C8.04096 99.475 17.4898 102.008 26.4473 97.1458C34.0843 92.9998 37.4669 88.4456 45.1859 88.4456C50.1778 88.4456 54.7263 90.379 61.9781 100L69.0177 96.0332C62.3058 87.1163 55.6804 81.1744 45.1859 81.1744Z" fill="#EAEAEA"/>
</svg>
