<svg width="100" height="100" viewBox="0 0 100 100" fill="none" xmlns="http://www.w3.org/2000/svg">
<path d="M50 8.33333C72.975 8.33333 91.6666 27.025 91.6666 50C91.6666 72.975 72.975 91.6667 50 91.6667C27.025 91.6667 8.33333 72.975 8.33333 50C8.33333 27.025 27.025 8.33333 50 8.33333ZM50 0C22.3875 0 0 22.3876 0 50C0 77.6126 22.3875 100 50 100C77.6125 100 100 77.6126 100 50C100 22.3876 77.6125 0 50 0ZM58.3334 50L39.5834 68.75L45.9459 75L70.8334 50L45.9459 25L39.5834 31.25L58.3334 50Z" fill="#EAEAEA"/>
</svg>
