<svg width="250" height="200" viewBox="0 0 250 200" fill="none" xmlns="http://www.w3.org/2000/svg">
<path d="M68.9491 121.667C69.6334 122.022 70.4095 122.047 71.109 121.735C71.8085 121.423 72.3748 120.799 72.6849 120C73.9083 116.711 74.1942 113.047 73.5002 109.551C72.8062 106.056 71.1693 102.918 68.8329 100.602C66.4965 98.2858 63.5854 96.9167 60.5326 96.6978C57.4798 96.4789 54.4483 97.422 51.8889 99.3869C49.3296 101.352 47.3791 104.233 46.3276 107.603C45.276 110.973 45.1796 114.651 46.0526 118.091C46.9256 121.53 48.7214 124.547 51.1729 126.693C53.6245 128.838 56.6008 129.998 59.6593 130C61.6145 129.989 63.5475 129.513 65.3411 128.6C66.0324 128.246 66.5757 127.585 66.8514 126.762C67.1271 125.938 67.1127 125.02 66.8113 124.208C66.5099 123.397 65.9463 122.76 65.2443 122.436C64.5424 122.113 63.7597 122.13 63.0684 122.483C61.2486 123.415 59.2087 123.572 57.3008 122.927C55.393 122.282 53.7369 120.876 52.6184 118.951C51.5 117.026 50.9894 114.704 51.1747 112.384C51.3601 110.065 52.2298 107.894 53.6337 106.247C55.0377 104.599 56.8877 103.579 58.8645 103.361C60.8413 103.144 62.8208 103.743 64.4613 105.055C66.1017 106.368 67.3002 108.311 67.8499 110.549C68.3995 112.788 68.2658 115.182 67.4718 117.317C67.1813 118.124 67.1734 119.033 67.4498 119.847C67.7263 120.662 68.2649 121.315 68.9491 121.667Z" fill="white"/>
<path d="M199.631 121.667C200.315 122.022 201.091 122.047 201.791 121.735C202.49 121.423 203.057 120.799 203.367 120C204.59 116.711 204.876 113.047 204.182 109.551C203.488 106.056 201.851 102.918 199.515 100.602C197.178 98.2858 194.267 96.9167 191.214 96.6978C188.162 96.4789 185.13 97.422 182.571 99.3869C180.011 101.352 178.061 104.233 177.009 107.603C175.958 110.973 175.861 114.651 176.734 118.091C177.607 121.53 179.403 124.547 181.855 126.693C184.306 128.838 187.283 129.998 190.341 130C192.296 129.989 194.229 129.513 196.023 128.6C196.714 128.246 197.258 127.585 197.533 126.762C197.809 125.938 197.795 125.02 197.493 124.208C197.192 123.397 196.628 122.76 195.926 122.436C195.224 122.113 194.442 122.13 193.75 122.483C191.931 123.415 189.891 123.572 187.983 122.927C186.075 122.282 184.419 120.876 183.3 118.951C182.182 117.026 181.671 114.704 181.857 112.384C182.042 110.065 182.912 107.894 184.316 106.247C185.72 104.599 187.57 103.579 189.546 103.361C191.523 103.144 193.503 103.743 195.143 105.055C196.784 106.368 197.982 108.311 198.532 110.549C199.081 112.788 198.948 115.182 198.154 117.317C197.863 118.124 197.855 119.033 198.132 119.847C198.408 120.662 198.947 121.315 199.631 121.667Z" fill="white"/>
<path d="M219.758 82.3667C224.474 81.9667 229.702 77.55 230.085 71.5667C230.085 70.5333 230.085 69.4667 230.085 68.3833C229.744 62.45 224.474 58.0333 219.73 57.6167L207.031 56.6667C205.687 56.5826 204.343 56.8118 203.075 57.341C201.807 57.8702 200.641 58.689 199.645 59.75L199.261 60.1833C196.627 50.3319 193.114 40.8347 188.778 31.85C185.937 26.1667 179.886 21.5167 175.099 21.45C173.153 21.3167 156.932 20 125 20C93.0681 20 77.0453 21.3 74.9004 21.4833C70.1135 21.4833 64.0056 26.2 61.2073 31.9167C56.8782 40.9029 53.3692 50.3999 50.7385 60.25L50.355 59.8167C49.3655 58.7494 48.2062 57.9217 46.9436 57.3812C45.681 56.8406 44.3398 56.5978 42.997 56.6667L30.2129 57.6C25.497 58 20.2698 62.4167 19.8862 68.4C19.8862 69.4333 19.8862 70.5 19.8862 71.5833C20.2271 77.5167 25.497 81.9333 30.2413 82.35L39.5027 83.0167C36.6576 86.1584 34.4407 90.0004 33.0112 94.2667C28.8259 107.748 26.3469 121.876 25.6533 136.2C25.355 143.017 25.3408 150.7 29.1334 155.533C29.3829 155.869 29.6873 156.143 30.0285 156.338C30.3697 156.534 30.7408 156.647 31.1199 156.671C31.4991 156.696 31.8785 156.63 32.2358 156.48C32.5932 156.329 32.9211 156.096 33.2003 155.794C33.4795 155.492 33.7043 155.127 33.8613 154.722C34.0184 154.316 34.1045 153.878 34.1147 153.432C34.1249 152.987 34.0589 152.544 33.9206 152.129C33.7823 151.714 33.5745 151.336 33.3095 151.017C31.1504 148.333 31.0936 142.45 31.3635 136.667C32.0145 123.004 34.3691 109.528 38.3521 96.6667C41.5198 86.6667 52.0453 79.25 59.872 78.5667C81.0652 76.6667 103.153 76.6667 124.517 76.6667C146.25 76.6667 168.707 76.6667 190.099 78.4833C197.926 79.15 208.437 86.5833 211.605 96.55C215.603 109.408 217.972 122.885 218.636 136.55C218.906 142.467 218.849 148.317 216.619 151.083C215.412 152.567 213.437 153.3 210.611 153.3H196.023C193.009 153.3 190.118 154.705 187.987 157.205C185.856 159.706 184.659 163.097 184.659 166.633V173.517C184.707 175.27 185.343 176.931 186.428 178.138C187.513 179.346 188.959 180.003 190.454 179.967H212.954C214.449 180.003 215.896 179.346 216.981 178.138C218.066 176.931 218.702 175.27 218.75 173.517V157.617C219.477 157.076 220.145 156.432 220.739 155.7C224.631 150.883 224.631 143.133 224.318 136.233C223.625 121.896 221.141 107.757 216.946 94.2667C215.521 90.0155 213.314 86.1855 210.483 83.05L219.73 82.3833L219.758 82.3667ZM213.068 173.333H190.341V166.667C190.341 164.899 190.939 163.203 192.005 161.953C193.07 160.702 194.516 160 196.023 160H210.611C211.432 160 212.253 159.939 213.068 159.817V173.333ZM201.989 72.9167L201.733 71.4833C201.733 70.4833 201.733 69.4667 201.733 68.5C201.856 67.0685 202.446 65.7485 203.381 64.8167C204.214 63.9318 205.283 63.4135 206.406 63.35H206.648L219.346 64.2833C221.69 64.4833 224.304 66.8 224.403 68.75C224.446 69.5603 224.446 70.373 224.403 71.1833C224.304 73.1833 221.704 75.5167 219.361 75.7167L206.577 76.65C205.384 76.6607 204.233 76.1428 203.352 75.2C202.752 74.5671 202.286 73.7799 201.989 72.9V72.9167ZM43.3521 76.6667L30.6533 75.7333C28.3095 75.5333 25.6959 73.2167 25.5965 71.2667C25.5538 70.4563 25.5538 69.6437 25.5965 68.8333C25.6959 66.8167 28.3095 64.5 30.6249 64.3L43.409 63.3667H43.6362C44.7491 63.4377 45.8073 63.9555 46.6334 64.8333C47.5581 65.741 48.1526 67.0287 48.2953 68.4333C48.2953 69.45 48.2953 70.4833 48.2953 71.4667L48.0396 72.8667C47.7385 73.766 47.2502 74.5625 46.6192 75.1833C45.7445 76.1395 44.5901 76.6646 43.3948 76.65L43.3521 76.6667ZM124.517 70C103.04 70 80.8521 70 59.4885 71.8333C57.5602 72.0255 55.6552 72.4614 53.8067 73.1333C53.8067 72.9333 53.8067 72.7333 53.8067 72.5333C56.261 59.4309 60.3992 46.8425 66.0794 35.2C68.0254 31.2333 72.4431 28.15 75.0141 28.15H75.284C77.0027 28 93.0396 26.6833 125 26.6833C156.96 26.6833 172.997 28 174.716 28.15H174.986C177.486 28.15 181.903 31.2333 183.835 35.1667C189.524 46.8181 193.667 59.4181 196.122 72.5333C196.122 72.7333 196.122 72.9333 196.122 73.1333C194.274 72.4587 192.369 72.0228 190.44 71.8333C168.92 70 146.307 70 124.517 70Z" fill="white"/>
<path d="M181.818 153.333H42.6136C39.5998 153.333 36.7094 154.738 34.5783 157.239C32.4472 159.739 31.25 163.13 31.25 166.667V173.55C31.2983 175.304 31.9338 176.964 33.0187 178.172C34.1036 179.379 35.5504 180.036 37.0455 180H59.5455C61.0405 180.036 62.4873 179.379 63.5722 178.172C64.6571 176.964 65.2926 175.304 65.3409 173.55V160H181.818C182.572 160 183.294 159.649 183.827 159.024C184.36 158.398 184.659 157.551 184.659 156.667C184.659 155.783 184.36 154.935 183.827 154.31C183.294 153.684 182.572 153.333 181.818 153.333ZM59.6591 173.333H36.9318V166.667C36.9318 164.898 37.5304 163.203 38.596 161.953C39.6615 160.702 41.1067 160 42.6136 160H59.6591V173.333Z" fill="white"/>
<path d="M150.568 126.667C151.322 126.667 152.044 126.315 152.577 125.69C153.11 125.065 153.409 124.217 153.409 123.333C153.409 122.449 153.11 121.601 152.577 120.976C152.044 120.351 151.322 120 150.568 120H99.4317C98.6783 120 97.9557 120.351 97.4229 120.976C96.8901 121.601 96.5908 122.449 96.5908 123.333C96.5908 124.217 96.8901 125.065 97.4229 125.69C97.9557 126.315 98.6783 126.667 99.4317 126.667H150.568Z" fill="white"/>
</svg>
