<svg width="250" height="200" viewBox="0 0 250 200" fill="none" xmlns="http://www.w3.org/2000/svg">
<g clip-path="url(#clip0)">
<path d="M247.159 156.567H230.113C229.337 156.567 228.593 156.928 228.044 157.572C227.496 158.216 227.187 159.089 227.187 160C227.187 160.911 227.496 161.784 228.044 162.428C228.593 163.072 229.337 163.433 230.113 163.433H243.878C243.388 166.134 242.144 168.564 240.343 170.34C238.541 172.116 236.286 173.134 233.934 173.233H16.1219C13.7707 173.134 11.5152 172.116 9.71375 170.34C7.91225 168.564 6.66804 166.134 6.17876 163.433H213.068C213.338 163.426 213.605 163.375 213.863 163.283C216.73 163.047 219.414 161.546 221.375 159.081C223.336 156.616 224.428 153.372 224.432 150V35.6333C224.424 31.4869 223.016 27.5131 220.516 24.5828C218.016 21.6524 214.627 20.0044 211.094 20H38.906C35.3722 20.0044 31.9839 21.6524 29.4838 24.5828C26.9836 27.5131 25.5755 31.4869 25.568 35.6333V156.567H2.84069C2.06463 156.567 1.32035 156.928 0.771596 157.572C0.222839 158.216 -0.0854492 159.089 -0.0854492 160C-0.0854492 171.083 7.18728 180.1 16.1219 180.1H233.878C242.812 180.1 250.085 171.083 250.085 160C250.085 159.089 249.777 158.216 249.228 157.572C248.679 156.928 247.935 156.567 247.159 156.567ZM31.2498 35.6333C31.2573 33.255 32.0668 30.9769 33.5014 29.2968C34.936 27.6166 36.8791 26.6711 38.906 26.6667H211.094C213.12 26.6711 215.064 27.6166 216.498 29.2968C217.933 30.9769 218.742 33.255 218.75 35.6333V150C218.754 151.687 218.212 153.314 217.234 154.551C216.256 155.788 214.914 156.544 213.48 156.667C213.343 156.658 213.205 156.658 213.068 156.667H31.2498V35.6333Z" fill="white"/>
</g>
<defs>
<clipPath id="clip0">
<rect width="250" height="200" fill="white"/>
</clipPath>
</defs>
</svg>
