<svg width="250" height="200" viewBox="0 0 250 200" fill="none" xmlns="http://www.w3.org/2000/svg">
<g clip-path="url(#clip0)">
<path d="M186.375 0H63.6252C58.9082 0.00441095 54.386 1.50541 51.0506 4.17372C47.7153 6.84203 45.839 10.4598 45.8335 14.2333V185.767C45.839 189.54 47.7153 193.158 51.0506 195.826C54.386 198.495 58.9082 199.996 63.6252 200H186.375C191.092 199.996 195.614 198.495 198.95 195.826C202.285 193.158 204.161 189.54 204.167 185.767V14.2333C204.161 10.4598 202.285 6.84203 198.95 4.17372C195.614 1.50541 191.092 0.00441095 186.375 0V0ZM195.833 185.767C195.828 187.772 194.83 189.694 193.057 191.112C191.285 192.53 188.882 193.329 186.375 193.333H63.6252C61.1183 193.329 58.7158 192.53 56.9432 191.112C55.1706 189.694 54.1723 187.772 54.1668 185.767V14.2333C54.1723 12.2279 55.1706 10.3058 56.9432 8.88775C58.7158 7.46968 61.1183 6.67107 63.6252 6.66667H186.375C188.882 6.67107 191.285 7.46968 193.057 8.88775C194.83 10.3058 195.828 12.2279 195.833 14.2333V185.767Z" fill="white"/>
<path d="M125 70C128.455 70.0032 131.874 69.4358 135.042 68.3333C136.056 67.9797 136.852 67.3184 137.257 66.4948C137.661 65.6712 137.64 64.7528 137.198 63.9417C136.756 63.1306 135.929 62.4931 134.9 62.1696C133.87 61.8461 132.722 61.8631 131.708 62.2167C128.15 63.4599 124.16 63.6699 120.429 62.8107C116.697 61.9514 113.458 60.0767 111.27 57.5102C109.082 54.9438 108.082 51.8467 108.445 48.7538C108.807 45.6608 110.508 42.7661 113.254 40.5695C115.999 38.3728 119.618 37.0121 123.484 36.7224C127.35 36.4326 131.222 37.2319 134.43 38.9822C137.638 40.7326 139.981 43.3242 141.055 46.3095C142.129 49.2948 141.867 52.4864 140.313 55.3333C139.977 56.1236 140.025 56.9858 140.445 57.7495C140.866 58.5132 141.63 59.1229 142.585 59.458C143.541 59.793 144.619 59.8292 145.606 59.5592C146.593 59.2893 147.418 58.7329 147.917 58C150.07 54.0529 150.573 49.6551 149.352 45.4609C148.13 41.2666 145.248 37.4998 141.136 34.7209C137.023 31.9419 131.899 30.2992 126.526 30.0371C121.152 29.775 115.817 30.9074 111.312 33.266C106.808 35.6246 103.376 39.0833 101.526 43.1277C99.6764 47.1722 99.5079 51.5862 101.046 55.7134C102.584 59.8406 105.746 63.4604 110.062 66.0345C114.378 68.6086 119.617 69.9994 125 70Z" fill="white"/>
<path d="M153.833 152.8C154.749 153.291 155.87 153.472 156.951 153.303C158.033 153.134 158.987 152.63 159.604 151.9C165.372 145.019 167.731 136.666 166.219 128.47C164.708 120.273 159.435 112.821 151.429 107.565C143.423 102.31 133.258 99.628 122.914 100.043C112.571 100.457 102.791 103.938 95.4816 109.807C88.1721 115.677 83.8568 123.513 83.3768 131.789C82.8969 140.065 86.2868 148.188 92.8856 154.573C99.4844 160.959 108.819 165.149 119.07 166.328C129.321 167.507 139.753 165.59 148.333 160.95C148.856 160.736 149.316 160.436 149.683 160.07C150.05 159.703 150.317 159.279 150.465 158.825C150.613 158.371 150.64 157.897 150.543 157.434C150.446 156.971 150.228 156.529 149.904 156.138C149.579 155.747 149.154 155.415 148.658 155.165C148.162 154.914 147.605 154.75 147.024 154.683C146.443 154.617 145.851 154.649 145.287 154.779C144.723 154.908 144.199 155.131 143.75 155.433C136.888 159.146 128.543 160.682 120.343 159.741C112.142 158.8 104.673 155.45 99.392 150.344C94.1109 145.237 91.396 138.741 91.7765 132.12C92.157 125.499 95.6056 119.229 101.45 114.532C107.295 109.835 115.116 107.047 123.39 106.712C131.664 106.377 139.798 108.519 146.205 112.72C152.612 116.922 156.834 122.881 158.048 129.437C159.262 135.994 157.381 142.676 152.771 148.183C152.151 148.909 151.915 149.802 152.114 150.666C152.313 151.531 152.931 152.298 153.833 152.8Z" fill="white"/>
<path d="M125 86.6665C115.73 86.6601 106.592 88.4211 98.3421 91.8037C90.0927 95.1863 82.9696 100.093 77.5634 106.117C72.1572 112.141 68.6235 119.11 67.255 126.444C65.8866 133.779 66.723 141.269 69.6947 148.294C72.6665 155.318 77.6881 161.675 84.3434 166.837C90.9987 171.999 99.096 175.818 107.964 177.978C116.833 180.137 126.216 180.575 135.338 179.254C144.46 177.933 153.057 174.892 160.417 170.383C161.295 169.846 161.871 169.052 162.017 168.175C162.164 167.298 161.869 166.411 161.198 165.708C160.527 165.005 159.534 164.545 158.438 164.427C157.342 164.31 156.233 164.546 155.354 165.083C146.659 170.45 135.982 173.352 125 173.333C113.72 173.335 102.772 170.285 93.9322 164.68C85.0928 159.075 78.8822 151.243 76.3093 142.457C73.7364 133.672 74.9525 124.448 79.7599 116.285C84.5673 108.122 92.6836 101.499 102.79 97.4925C112.897 93.4858 124.4 92.3307 135.431 94.2148C146.462 96.0989 156.372 100.911 163.552 107.871C170.733 114.83 174.76 123.527 174.982 132.549C175.203 141.571 171.604 150.387 164.771 157.567C164.091 158.269 163.788 159.159 163.929 160.041C164.07 160.922 164.642 161.723 165.521 162.267C166.399 162.81 167.512 163.052 168.614 162.94C169.715 162.827 170.716 162.369 171.396 161.667C179.191 153.542 183.39 143.575 183.333 133.333C183.333 120.956 177.187 109.087 166.248 100.335C155.308 91.5832 140.471 86.6665 125 86.6665Z" fill="white"/>
</g>
<defs>
<clipPath id="clip0">
<rect width="250" height="200" fill="white"/>
</clipPath>
</defs>
</svg>
