<svg width="250" height="200" viewBox="0 0 250 200" fill="none" xmlns="http://www.w3.org/2000/svg">
<path d="M216.958 73.3333H200C198.895 73.3333 197.835 73.6845 197.054 74.3096C196.272 74.9348 195.833 75.7826 195.833 76.6667C195.833 77.5507 196.272 78.3986 197.054 79.0237C197.835 79.6488 198.895 80 200 80H216.958C219.091 80 221.137 80.6778 222.645 81.8843C224.153 83.0908 225 84.7271 225 86.4333V186.9C225 188.606 224.153 190.243 222.645 191.449C221.137 192.656 219.091 193.333 216.958 193.333H162.208C160.076 193.333 158.03 192.656 156.522 191.449C155.014 190.243 154.167 188.606 154.167 186.9V86.4333C154.167 84.7271 155.014 83.0908 156.522 81.8843C158.03 80.6778 160.076 80 162.208 80H175C179.42 80 183.66 78.5952 186.785 76.0947C189.911 73.5943 191.667 70.2029 191.667 66.6667V12.3833C191.667 9.09907 190.036 5.94932 187.133 3.62699C184.23 1.30467 180.293 0 176.188 0H32.1459C28.0406 0 24.1034 1.30467 21.2005 3.62699C18.2976 5.94932 16.6667 9.09907 16.6667 12.3833V187.617C16.6667 190.901 18.2976 194.051 21.2005 196.373C24.1034 198.695 28.0406 200 32.1459 200H216.958C221.3 199.996 225.461 198.614 228.531 196.158C231.601 193.702 233.328 190.373 233.333 186.9V86.4333C233.328 82.9604 231.601 79.6309 228.531 77.1751C225.461 74.7193 221.3 73.3377 216.958 73.3333ZM25.0001 187.617V12.3833C25.0056 10.8685 25.7602 9.41703 27.0991 8.3459C28.438 7.27477 30.2524 6.67106 32.1459 6.66667H176.188C178.081 6.67106 179.895 7.27477 181.234 8.3459C182.573 9.41703 183.328 10.8685 183.333 12.3833V66.6667C183.333 68.4348 182.455 70.1305 180.893 71.3807C179.33 72.631 177.21 73.3333 175 73.3333H162.208C157.867 73.3377 153.705 74.7193 150.636 77.1751C147.566 79.6309 145.839 82.9604 145.833 86.4333V186.9C145.817 189.153 146.535 191.37 147.917 193.333H32.1459C30.2524 193.329 28.438 192.725 27.0991 191.654C25.7602 190.583 25.0056 189.131 25.0001 187.617Z" fill="white"/>
<path d="M189.583 184.167C192.46 184.167 194.792 182.301 194.792 180C194.792 177.699 192.46 175.833 189.583 175.833C186.707 175.833 184.375 177.699 184.375 180C184.375 182.301 186.707 184.167 189.583 184.167Z" fill="white"/>
<path d="M104.167 184.167C107.043 184.167 109.375 182.301 109.375 180C109.375 177.699 107.043 175.833 104.167 175.833C101.29 175.833 98.9583 177.699 98.9583 180C98.9583 182.301 101.29 184.167 104.167 184.167Z" fill="white"/>
<path d="M200 90.0001C200 89.116 199.561 88.2682 198.779 87.6431C197.998 87.0179 196.938 86.6667 195.833 86.6667H183.333C182.228 86.6667 181.168 87.0179 180.387 87.6431C179.605 88.2682 179.167 89.116 179.167 90.0001C179.167 90.8841 179.605 91.732 180.387 92.3571C181.168 92.9822 182.228 93.3334 183.333 93.3334H195.833C196.938 93.3334 197.998 92.9822 198.779 92.3571C199.561 91.732 200 90.8841 200 90.0001Z" fill="white"/>
</svg>
