<svg width="250" height="200" viewBox="0 0 250 200" fill="none" xmlns="http://www.w3.org/2000/svg">
<g clip-path="url(#clip0)">
<path d="M248.04 178.75L243.892 156.133C242.873 151.195 240.346 146.866 236.79 143.967C236.49 143.675 236.142 143.46 235.768 143.333C235.394 143.206 235.002 143.17 234.616 143.229C234.23 143.287 233.858 143.438 233.524 143.672C233.189 143.906 232.899 144.218 232.672 144.589C232.445 144.959 232.285 145.381 232.202 145.828C232.12 146.274 232.116 146.735 232.192 147.183C232.268 147.632 232.421 148.057 232.643 148.432C232.864 148.808 233.149 149.126 233.48 149.367C235.874 151.316 237.585 154.217 238.295 157.533L242.443 180.15C243.579 186.317 242.372 191.533 239.503 192.8C237.739 193.487 235.836 193.504 234.063 192.849C232.291 192.194 230.74 190.899 229.631 189.15L223.949 178.283C223.702 177.782 223.348 177.365 222.923 177.072C222.497 176.78 222.013 176.623 221.52 176.617H198.864C198.379 176.617 197.903 176.763 197.481 177.04C197.058 177.317 196.703 177.717 196.449 178.2L190.767 189.067C189.778 190.792 188.332 192.086 186.652 192.749C184.973 193.412 183.154 193.406 181.477 192.733C178.395 191.367 176.889 185.933 177.954 180.083L182.102 157.467C182.795 154.47 184.281 151.809 186.347 149.868C188.412 147.927 190.95 146.806 193.594 146.667H221.591C224.605 146.667 227.495 145.262 229.626 142.761C231.757 140.261 232.954 136.87 232.954 133.333V17.1334C232.954 16.2493 232.655 15.4015 232.122 14.7764C231.59 14.1512 230.867 13.8 230.114 13.8H19.8863C19.1329 13.8 18.4103 14.1512 17.8775 14.7764C17.3447 15.4015 17.0454 16.2493 17.0454 17.1334V163.333C17.0454 164.217 17.3447 165.065 17.8775 165.69C18.4103 166.315 19.1329 166.667 19.8863 166.667H93.75V173.333H85.2272C84.4738 173.333 83.7512 173.685 83.2184 174.31C82.6856 174.935 82.3863 175.783 82.3863 176.667C82.3863 177.551 82.6856 178.399 83.2184 179.024C83.7512 179.649 84.4738 180 85.2272 180H164.773C165.526 180 166.249 179.649 166.782 179.024C167.314 178.399 167.614 177.551 167.614 176.667C167.614 175.783 167.314 174.935 166.782 174.31C166.249 173.685 165.526 173.333 164.773 173.333H156.25V166.667H174.56L172.344 178.75C170.653 187.933 173.636 196.467 179.446 199.033C182.352 200.285 185.536 200.333 188.469 199.169C191.402 198.005 193.907 195.699 195.568 192.633L200.469 183.35H220.028L224.858 192.617C226.173 194.924 227.958 196.809 230.052 198.102C232.146 199.394 234.481 200.052 236.847 200.017C238.461 200.025 240.063 199.692 241.577 199.033C247.159 196.533 249.801 188.333 248.04 178.75ZM150.568 173.333H99.4318V166.667H150.568V173.333ZM22.7272 160V20.4667H227.273V133.333C227.273 135.101 226.674 136.797 225.609 138.047C224.543 139.298 223.098 140 221.591 140H193.594C189.648 140.164 185.853 141.825 182.78 144.734C179.706 147.643 177.52 151.643 176.548 156.133L175.838 160H22.7272Z" fill="white"/>
</g>
<defs>
<clipPath id="clip0">
<rect width="250" height="200" fill="white"/>
</clipPath>
</defs>
</svg>
